<svg width="17" height="19" viewBox="0 0 17 19" fill="none" xmlns="http://www.w3.org/2000/svg">
<g clip-path="url(#clip0_9_178)">
<path d="M8.67348 7.86369V11.3492H13.3414C13.1364 12.4701 12.5213 13.4192 11.5988 14.0574L14.4137 16.3238C16.0538 14.7529 17 12.4456 17 9.70469C17 9.06652 16.9448 8.45282 16.8423 7.86378L8.67348 7.86369Z" fill="#4285F4"/>
<path d="M3.81259 11.2131L3.17772 11.7174L0.93045 13.5337C2.35763 16.471 5.28276 18.5001 8.67329 18.5001C11.0151 18.5001 12.9784 17.6983 14.4135 16.3238L11.5986 14.0574C10.8259 14.5974 9.84022 14.9247 8.67329 14.9247C6.41819 14.9247 4.50218 13.3456 3.81614 11.2183L3.81259 11.2131Z" fill="#34A853"/>
<path d="M0.930456 5.46642C0.339112 6.67729 9.15527e-05 8.04368 9.15527e-05 9.50003C9.15527e-05 10.9564 0.339112 12.3228 0.930456 13.5336C0.930456 13.5418 3.81642 11.21 3.81642 11.21C3.64295 10.67 3.54042 10.0973 3.54042 9.49993C3.54042 8.90258 3.64295 8.32988 3.81642 7.78988L0.930456 5.46642Z" fill="#FBBC05"/>
<path d="M8.67347 4.08368C9.95086 4.08368 11.0863 4.54186 11.9931 5.42551L14.4768 2.84826C12.9708 1.39191 11.0154 0.500031 8.67347 0.500031C5.28294 0.500031 2.35763 2.52095 0.93045 5.46643L3.81633 7.79008C4.50228 5.66277 6.41837 4.08368 8.67347 4.08368Z" fill="#EA4335"/>
</g>
<defs>
<clipPath id="clip0_9_178">
<rect width="17" height="18" fill="white" transform="translate(0 0.500031)"/>
</clipPath>
</defs>
</svg>
